<svg width="40" height="32" viewBox="0 0 40 32" fill="none" xmlns="http://www.w3.org/2000/svg">
<path d="M34.4375 0.875H5.5625C4.28656 0.876365 3.06328 1.38383 2.16106 2.28606C1.25883 3.18828 0.751365 4.41156 0.75 5.6875V26.3125C0.751365 27.5884 1.25883 28.8117 2.16106 29.7139C3.06328 30.6162 4.28656 31.1236 5.5625 31.125H34.4375C35.7134 31.1236 36.9367 30.6162 37.8389 29.7139C38.7412 28.8117 39.2486 27.5884 39.25 26.3125V5.6875C39.2486 4.41156 38.7412 3.18828 37.8389 2.28606C36.9367 1.38383 35.7134 0.876365 34.4375 0.875ZM33.2189 8.83539L20.8439 18.4604C20.6026 18.648 20.3057 18.7498 20 18.7498C19.6943 18.7498 19.3974 18.648 19.1561 18.4604L6.78109 8.83539C6.6357 8.72559 6.51358 8.58799 6.42182 8.43059C6.33006 8.27318 6.2705 8.09911 6.2466 7.91849C6.2227 7.73787 6.23494 7.5543 6.2826 7.37845C6.33026 7.20259 6.41239 7.03797 6.52423 6.89413C6.63606 6.7503 6.77536 6.63012 6.93404 6.54059C7.09272 6.45106 7.26762 6.39396 7.44856 6.3726C7.6295 6.35124 7.81288 6.36606 7.98804 6.41619C8.1632 6.46632 8.32666 6.55076 8.46891 6.66461L20 15.633L31.5311 6.66461C31.8194 6.44686 32.1819 6.35136 32.5401 6.39876C32.8983 6.44616 33.2234 6.63264 33.4452 6.91789C33.667 7.20313 33.7676 7.56421 33.7252 7.92304C33.6829 8.28188 33.501 8.60962 33.2189 8.83539Z" fill="#2A3141"/>
</svg>
