<svg width="263" height="64" viewBox="0 0 263 64" fill="none" xmlns="http://www.w3.org/2000/svg">
<g clip-path="url(#clip0)">
<path d="M9.02941 38.8824L0 30.2837C0 30.4345 0 30.5477 0 30.6985V64.0374H45.5541L45.5911 45.784L45.147 45.7463C45.073 45.7463 41.7795 45.52 37.0428 44.9543L36.1176 44.8411C34.4524 44.6526 32.6391 44.3886 30.7148 44.0869L29.7896 43.936C27.4953 43.5966 25.0899 43.1817 22.6845 42.6915C21.0193 42.352 19.28 41.9749 17.5777 41.5223L16.6526 41.2961C14.3212 40.6926 12.0269 39.9761 9.95455 39.1841L9.02941 38.807V38.8824Z" fill="#D6D6D6"/>
<path d="M30.7148 24.2119C30.7148 24.2119 36.5617 23.6084 37.0428 20.8931V44.0869V44.9543L36.1176 44.8412C34.4524 44.6526 32.6391 44.3886 30.7148 44.1247L29.7896 43.9738C25.867 43.3704 21.6114 42.5784 17.5777 41.5978L16.6526 41.3716C14.2842 40.7681 11.9899 40.0516 9.95456 39.2973L9.02941 38.9202C5.29183 37.4116 2.33137 35.6014 0.92515 33.4517C-0.037 32.2071 5.69897e-06 30.6986 5.69897e-06 30.6986C5.69897e-06 30.5478 5.69897e-06 30.4346 5.69897e-06 30.2838C5.69897e-06 27.7569 3.73759 26.5878 9.02941 25.9467L9.95456 25.8335C12.0269 25.6073 14.3212 25.2301 16.6526 25.0793L17.5777 25.0416C18.2438 25.0038 18.91 24.9661 19.5761 24.9284C23.0546 24.7399 26.7552 24.5136 29.7896 24.1364L30.7148 24.0233V24.2119Z" fill="#E2E2E2"/>
<path d="M9.95455 25.8334C12.0639 25.6071 14.3582 25.4186 16.6526 25.3054L17.5777 25.2677C18.2438 25.23 18.9469 25.1923 19.6131 25.1546C23.3506 24.9283 26.8662 24.7397 29.7526 24.3626L30.6778 24.2495C33.1202 23.8723 35.0074 23.382 36.0806 22.5523C36.0806 22.5523 36.8207 21.9489 37.0058 20.8929C37.0058 18.6301 34.3784 17.5364 30.6778 16.8953L29.7526 16.7444C27.7173 16.4427 25.386 16.2165 23.0546 15.9902C21.2043 15.8016 19.317 15.6507 17.5777 15.4245L16.6526 15.3113C9.25144 14.2931 8.9924 11.0874 8.9924 11.0874V25.9843L9.95455 25.8334Z" fill="#EAEAEA"/>
<path d="M30.7148 16.8957V4.60107C30.5298 7.39188 22.6845 7.65588 19.8351 7.84444C19.058 7.88216 18.3179 7.91987 17.5777 7.9953L16.6526 8.07073C12.4339 8.41015 8.9924 9.01357 8.9924 11.0878C9.02941 11.8421 9.51048 12.7849 9.91755 13.0866C11.1757 14.2558 13.6551 14.8592 16.6156 15.3117L17.5407 15.4249C19.243 15.6512 21.0933 15.802 22.9436 15.9906C25.2749 16.2169 27.6803 16.4054 29.7526 16.7449L30.7148 16.8957Z" fill="#F4F4F4"/>
<path d="M17.6147 7.9574C18.3919 7.91968 19.169 7.84425 19.9091 7.80654C24.0537 7.54255 28.0504 7.31626 29.7896 6.14714C30.5297 5.4683 30.6778 5.12887 30.7148 4.60088C30.7148 2.41349 27.2362 2.1495 23.8687 1.8855C21.1303 1.65922 18.3178 1.43294 17.6887 0.301531C17.6147 0.0752498 17.3927 -0.0378911 17.1337 -0.000177473C16.8746 -0.000177473 16.6526 0.188391 16.6526 0.414672V8.03282L17.6147 7.9574Z" fill="white"/>
<path d="M73.1604 42.1638H70.385V34.621H61.8366V42.1638H59.0612V24.4761H61.8366V31.9434H70.385V24.4761H73.1604V42.1638Z" fill="white"/>
<path d="M80.9316 37.676C81.2647 38.2417 81.7457 38.7319 82.3748 39.0714C82.9669 39.4108 83.633 39.5993 84.3361 39.5993C85.0762 39.5993 85.7794 39.4108 86.3715 39.0714C86.9635 38.7319 87.4816 38.2794 87.8147 37.676C88.1477 37.0725 88.3328 36.4691 88.3328 35.7526V24.4385H91.0712V35.828C91.0712 37.1102 90.7751 38.2039 90.183 39.1845C89.591 40.1651 88.7768 40.9193 87.7407 41.485C86.7045 42.0507 85.5573 42.3147 84.3361 42.3147C83.1149 42.3147 81.9678 42.0507 80.9316 41.485C79.8954 40.9193 79.0813 40.1651 78.5262 39.1845C77.9341 38.2039 77.6381 37.0725 77.6381 35.828V24.4762H80.4135V35.7903C80.4135 36.4691 80.5986 37.1103 80.9316 37.676Z" fill="white"/>
<path d="M95.5859 24.4761H100.508C102.691 24.4761 104.504 24.9286 105.911 25.7961C107.317 26.6635 108.353 27.7949 109.019 29.1903C109.685 30.5857 109.981 32.0188 109.981 33.6028C109.981 35.3376 109.574 36.8461 108.797 38.1284C108.02 39.4484 106.947 40.4289 105.651 41.1455C104.356 41.8621 102.876 42.2015 101.322 42.2015H95.5489V24.4761H95.5859ZM100.878 39.4484C102.136 39.4484 103.209 39.2221 104.171 38.7318C105.133 38.2793 105.874 37.5627 106.392 36.6576C106.91 35.7524 107.206 34.6588 107.206 33.3765C107.206 31.9811 106.91 30.812 106.318 29.9068C105.725 28.964 104.985 28.2851 104.097 27.8703C103.209 27.4555 102.284 27.2292 101.322 27.2292H98.3984V39.4861H100.878V39.4484Z" fill="white"/>
<path d="M118.863 26.8519C118.011 26.8519 117.308 27.0405 116.827 27.4176C116.346 27.7947 116.087 28.3227 116.087 29.0393C116.087 29.7181 116.383 30.2461 117.012 30.6987C117.641 31.1512 118.529 31.6038 119.64 32.0187C120.491 32.3204 121.231 32.6975 121.86 33.0746C122.489 33.4895 122.97 34.0175 123.377 34.6963C123.784 35.3752 123.969 36.2426 123.969 37.2609C123.969 38.2037 123.747 39.0334 123.266 39.8254C122.822 40.5796 122.119 41.1831 121.268 41.6356C120.38 42.0882 119.344 42.3145 118.159 42.3145C117.123 42.3145 116.087 42.1636 115.051 41.8242C114.015 41.4848 113.127 41.0322 112.35 40.4665L113.608 38.2414C114.2 38.694 114.903 39.0711 115.68 39.3728C116.494 39.6745 117.234 39.8254 117.9 39.8254C118.752 39.8254 119.492 39.6368 120.121 39.222C120.75 38.8071 121.083 38.166 121.083 37.2986C121.083 36.6197 120.824 36.054 120.269 35.6015C119.751 35.1489 119.011 34.734 118.048 34.3569C117.049 33.9798 116.235 33.6026 115.606 33.2632C114.977 32.9238 114.385 32.3958 113.941 31.7169C113.497 31.0381 113.238 30.2461 113.238 29.2656C113.238 27.8324 113.719 26.6633 114.681 25.7959C115.643 24.9285 116.901 24.4382 118.492 24.3628C119.64 24.3628 120.639 24.5136 121.527 24.7776C122.378 25.0416 123.192 25.4188 123.932 25.9091L122.896 28.0587C121.379 27.2667 120.047 26.8519 118.863 26.8519Z" fill="white"/>
<path d="M127.744 28.8129C128.521 27.4175 129.631 26.3238 130.963 25.4941C132.333 24.6644 133.813 24.2495 135.404 24.2495C136.995 24.2495 138.476 24.6644 139.845 25.4941C141.214 26.3238 142.287 27.4175 143.101 28.8129C143.915 30.2083 144.322 31.7168 144.322 33.3008C144.322 34.9225 143.915 36.431 143.101 37.8264C142.287 39.2218 141.214 40.3155 139.845 41.1075C138.476 41.8995 136.995 42.3143 135.404 42.3143C133.813 42.3143 132.333 41.8995 130.963 41.1075C129.594 40.3155 128.521 39.2218 127.744 37.8264C126.967 36.431 126.56 34.9225 126.56 33.2631C126.56 31.7168 126.967 30.2083 127.744 28.8129ZM130.223 36.5064C130.778 37.4493 131.481 38.2413 132.444 38.807C133.369 39.3727 134.405 39.6744 135.515 39.6744C136.625 39.6744 137.624 39.4104 138.513 38.8447C139.401 38.279 140.141 37.5247 140.659 36.5441C141.177 35.5636 141.473 34.5076 141.473 33.3762C141.473 32.2071 141.214 31.1511 140.659 30.2083C140.104 29.2277 139.401 28.4734 138.476 27.9077C137.55 27.342 136.551 27.0403 135.441 27.0403C134.331 27.0403 133.332 27.342 132.407 27.9077C131.481 28.4734 130.778 29.2277 130.223 30.2083C129.705 31.1888 129.409 32.2448 129.409 33.3762C129.409 34.4699 129.668 35.5259 130.223 36.5064Z" fill="white"/>
<path d="M163.343 24.476V42.8048H163.269L150.762 30.4347L150.836 42.1637H148.023V23.8726H148.171L160.642 36.3935L160.605 24.476H163.343Z" fill="white"/>
<path d="M185.325 25.9846C186.435 27.0029 186.99 28.3983 186.99 30.1708C186.99 31.1891 186.805 32.1319 186.398 33.0371C185.991 33.9045 185.362 34.6588 184.474 35.1867C183.586 35.7147 182.475 36.0164 181.069 36.0164H178.553V42.1638H175.777V24.4761H180.699C182.66 24.4761 184.215 24.9664 185.325 25.9846ZM182.92 32.7731C183.401 32.4336 183.734 32.0188 183.919 31.5662C184.104 31.076 184.215 30.6234 184.215 30.2085C184.215 29.4543 183.993 28.7754 183.512 28.1343C183.031 27.4932 182.253 27.1915 181.143 27.1915H178.553V33.3011H181.069C181.846 33.3011 182.438 33.1125 182.92 32.7731Z" fill="white"/>
<path d="M197.574 38.0151H191.246L189.581 42.1636H186.842L194.539 23.7217H194.724L202.422 42.1636H199.239L197.574 38.0151ZM196.612 35.5638L194.428 29.9821L192.171 35.5638H196.612Z" fill="white"/>
<path d="M215.041 41.8241C214.152 42.1635 213.153 42.352 212.08 42.352C210.267 42.352 208.713 41.9372 207.38 41.1452C206.048 40.3532 205.012 39.2595 204.272 37.9018C203.532 36.5441 203.199 35.0733 203.199 33.4516C203.199 31.6791 203.569 30.0951 204.272 28.6997C205.012 27.3043 206.011 26.2106 207.306 25.4186C208.602 24.6266 210.082 24.2495 211.747 24.2495C212.783 24.2495 213.708 24.4004 214.559 24.6644C215.411 24.9284 216.188 25.3055 216.854 25.7203L215.744 28.3603C214.448 27.4552 213.153 26.9649 211.821 26.9649C210.785 26.9649 209.86 27.2289 208.972 27.7946C208.083 28.3603 207.38 29.1146 206.862 30.0951C206.344 31.0757 206.085 32.1317 206.085 33.2631C206.085 34.4699 206.344 35.5636 206.825 36.5441C207.306 37.5247 208.009 38.279 208.898 38.807C209.786 39.335 210.822 39.6367 212.006 39.6367C212.857 39.6367 213.597 39.5235 214.3 39.2595C214.967 38.9955 215.559 38.6561 216.003 38.279L217.187 40.8058C216.669 41.1452 215.966 41.4846 215.041 41.8241Z" fill="white"/>
<path d="M223.663 24.4761V42.1638H220.887V24.4761H223.663Z" fill="white"/>
<path d="M238.946 24.4761V27.1915H231.212V32.1697H237.947V34.885H231.212V42.1638H228.437V24.4761H238.946Z" fill="white"/>
<path d="M245.348 24.4761V42.1638H242.573V24.4761H245.348Z" fill="white"/>
<path d="M260.891 41.8241C260.003 42.1635 259.003 42.352 257.93 42.352C256.117 42.352 254.563 41.9372 253.231 41.1452C251.898 40.3532 250.862 39.2595 250.122 37.9018C249.419 36.5819 249.049 35.0733 249.049 33.4516C249.049 31.6791 249.419 30.0951 250.122 28.6997C250.862 27.3043 251.861 26.2106 253.157 25.4186C254.452 24.6266 255.932 24.2495 257.597 24.2495C258.596 24.2495 259.558 24.4004 260.41 24.6644C261.261 24.9284 262.038 25.3055 262.704 25.7203L261.594 28.3603C260.299 27.4552 259.003 26.9649 257.671 26.9649C256.635 26.9649 255.71 27.2289 254.822 27.7946C253.934 28.3603 253.231 29.1146 252.712 30.0951C252.194 31.0757 251.935 32.1317 251.935 33.2631C251.935 34.4699 252.194 35.5636 252.675 36.5441C253.157 37.5247 253.86 38.279 254.748 38.807C255.636 39.335 256.672 39.6367 257.856 39.6367C258.707 39.6367 259.447 39.5235 260.151 39.2595C260.817 38.9955 261.409 38.6561 261.853 38.279L263.037 40.8058C262.482 41.1452 261.779 41.4846 260.891 41.8241Z" fill="white"/>
<path d="M59.2092 50.4602C59.0242 50.3848 58.8392 50.3848 58.6541 50.3848C58.3951 50.3848 58.2101 50.4602 58.062 50.5734C57.914 50.6865 57.84 50.8373 57.84 51.0636C57.84 51.2522 57.914 51.4408 58.0991 51.5539C58.2841 51.667 58.5431 51.8179 58.8392 51.931C59.0982 52.0065 59.2832 52.1196 59.4683 52.2328C59.6533 52.3459 59.7643 52.4968 59.8753 52.6476C59.9864 52.7985 60.0234 53.0625 60.0234 53.3642C60.0234 53.6282 59.9493 53.8544 59.8383 54.043C59.7273 54.2316 59.5423 54.4201 59.3202 54.5333C59.0982 54.6464 58.8022 54.7219 58.5061 54.7219C58.2101 54.7219 57.951 54.6841 57.655 54.571C57.3959 54.4579 57.1369 54.3447 56.9519 54.1939L57.2479 53.6659C57.3959 53.779 57.618 53.8922 57.84 53.9676C58.0621 54.043 58.2841 54.0807 58.4691 54.0807C58.7282 54.0807 58.9502 54.0053 59.1352 53.8922C59.3202 53.7413 59.4313 53.5527 59.4313 53.2887C59.4313 53.0625 59.3573 52.8739 59.2092 52.7607C59.0612 52.6476 58.8392 52.4967 58.5431 52.3836C58.2841 52.2705 58.062 52.195 57.877 52.0819C57.692 51.9688 57.544 51.8556 57.4329 51.667C57.3219 51.4785 57.2479 51.2899 57.2479 51.0259C57.2479 50.6488 57.3589 50.3471 57.618 50.1208C57.877 49.8945 58.2101 49.7814 58.6171 49.7437C59.1352 49.7437 59.5793 49.8568 60.0234 50.1208L59.7643 50.6111C59.5793 50.6111 59.3943 50.5356 59.2092 50.4602Z" fill="white"/>
<path d="M63.8349 49.8569V50.4604H62.5768V54.6466H61.9477V50.4604H60.7265V49.8569H63.8349Z" fill="white"/>
<path d="M67.4245 54.609L66.3143 52.8364C66.2773 52.8364 66.2403 52.8364 66.1663 52.8364H65.5002V54.609H64.8711V49.8193H66.1293C66.4623 49.8193 66.7214 49.8948 66.9804 50.0079C67.2395 50.121 67.4245 50.3096 67.5725 50.4982C67.7205 50.7245 67.7945 50.9885 67.7945 51.2902C67.7945 51.5919 67.7205 51.8559 67.6095 52.1199C67.4985 52.3839 67.2765 52.5724 67.0174 52.6856L68.2016 54.609H67.4245ZM66.9064 51.969C67.0544 51.7804 67.1284 51.5919 67.1284 51.3279C67.1284 51.177 67.0914 51.0639 67.0174 50.913C66.9434 50.7622 66.8694 50.649 66.7214 50.5736C66.5734 50.4982 66.4253 50.4228 66.2033 50.4228H65.4632V52.1953H66.1293C66.4993 52.233 66.7584 52.1576 66.9064 51.969Z" fill="white"/>
<path d="M71.6062 53.3645H69.7929L69.2748 54.6091H68.6457L70.718 49.6309H70.755L72.7903 54.6091H72.0502L71.6062 53.3645ZM71.3841 52.7988L70.718 51.064L70.0149 52.7988H71.3841Z" fill="white"/>
<path d="M76.1209 49.8569V50.4604H74.8627V54.6466H74.2336V50.4604H73.0124V49.8569H76.1209Z" fill="white"/>
<path d="M80.1545 49.8569V50.4604H77.7121V51.9312H79.8584V52.5346H77.7121V54.0054H80.2285V54.6466H77.083V49.8569H80.1545Z" fill="white"/>
<path d="M84.3732 54.5335C84.0771 54.6467 83.7811 54.6844 83.522 54.6844C83.041 54.6844 82.5969 54.5713 82.2268 54.3827C81.8568 54.1941 81.5607 53.8924 81.3757 53.553C81.1907 53.2136 81.0797 52.7987 81.0797 52.3462C81.0797 51.8182 81.1907 51.3656 81.4127 50.9885C81.6347 50.6113 81.9308 50.3096 82.3008 50.121C82.6709 49.9325 83.078 49.8193 83.522 49.8193C83.7811 49.8193 84.0401 49.857 84.2621 49.9325C84.4842 50.0079 84.7062 50.0833 84.8912 50.1965L84.6692 50.7999C84.5212 50.7245 84.3732 50.649 84.1511 50.5736C83.9291 50.4982 83.7441 50.4982 83.596 50.4982C83.226 50.4982 82.8929 50.5736 82.6339 50.7245C82.3378 50.8753 82.1528 51.1016 82.0048 51.3656C81.8568 51.6296 81.7828 51.969 81.7828 52.3462C81.7828 52.6856 81.8568 52.9873 82.0048 53.2513C82.1528 53.5153 82.3749 53.7416 82.6339 53.8924C82.9299 54.0433 83.226 54.1187 83.596 54.1187C83.7441 54.1187 83.9291 54.1187 84.0771 54.081C84.2251 54.0433 84.3732 54.0056 84.4842 53.9301V52.9873H83.559V52.3839H85.1503V54.3073C84.8913 54.345 84.6692 54.4204 84.3732 54.5335Z" fill="white"/>
<path d="M86.8895 49.8569V54.6466H86.2604V49.8569H86.8895Z" fill="white"/>
<path d="M91.1082 54.5334C90.8862 54.6088 90.6271 54.6465 90.3681 54.6465C89.887 54.6465 89.4799 54.5334 89.1099 54.3071C88.7398 54.0808 88.4438 53.8168 88.2588 53.4397C88.0737 53.0626 87.9627 52.6854 87.9627 52.2329C87.9627 51.7426 88.0737 51.3277 88.2588 50.9506C88.4438 50.5735 88.7398 50.2718 89.0729 50.0455C89.4429 49.8192 89.813 49.7061 90.2571 49.7061C90.5161 49.7061 90.7751 49.7438 90.9972 49.8192C91.2192 49.8946 91.4413 49.97 91.6263 50.0832L91.3672 50.6866C90.9972 50.4226 90.6271 50.3095 90.2941 50.3095C89.998 50.3095 89.702 50.3849 89.4429 50.5358C89.1839 50.6866 88.9619 50.9129 88.8138 51.2146C88.6658 51.4786 88.5918 51.818 88.5918 52.1574C88.5918 52.4969 88.6658 52.7986 88.8138 53.1003C88.9619 53.3643 89.1469 53.5906 89.4059 53.7414C89.665 53.8923 89.961 53.9677 90.3311 53.9677C90.7381 53.9677 91.1082 53.8546 91.4413 53.5906L91.7003 54.1563C91.5153 54.3825 91.3302 54.458 91.1082 54.5334Z" fill="white"/>
<path d="M92.4034 54.0433C92.4774 53.9679 92.5514 53.9302 92.6254 53.9302C92.6995 53.9302 92.7735 53.9679 92.8475 54.0433C92.9215 54.1187 92.9585 54.1942 92.9585 54.3073C92.9585 54.4205 92.9215 54.4959 92.8475 54.5713C92.7735 54.6467 92.6995 54.6844 92.6254 54.6844C92.5514 54.6844 92.4404 54.6467 92.4034 54.5713C92.3294 54.4959 92.2924 54.4205 92.2924 54.3073C92.2924 54.1942 92.3294 54.081 92.4034 54.0433Z" fill="white"/>
<path d="M98.3613 50.2341C98.6574 50.4981 98.8054 50.8752 98.8054 51.3278C98.8054 51.5918 98.7684 51.8558 98.6574 52.082C98.5464 52.3083 98.3613 52.4969 98.1393 52.6477C97.9173 52.7986 97.6212 52.874 97.2512 52.874H96.548V54.6466H95.9189V49.8569H97.1771C97.6582 49.8569 98.0653 49.9701 98.3613 50.2341ZM97.7692 52.082C97.9173 51.9689 98.0283 51.8558 98.0653 51.7426C98.1393 51.5918 98.1393 51.4786 98.1393 51.3278C98.1393 51.1015 98.0653 50.8752 97.9173 50.7243C97.7692 50.5358 97.5472 50.4604 97.2142 50.4604H96.474V52.2329H97.1771C97.4362 52.2329 97.6212 52.1952 97.7692 52.082Z" fill="white"/>
<path d="M102.358 54.609L101.248 52.8364C101.211 52.8364 101.174 52.8364 101.1 52.8364H100.397V54.609H99.7675V49.8193H101.026C101.359 49.8193 101.618 49.8948 101.877 50.0079C102.136 50.121 102.321 50.3096 102.469 50.4982C102.617 50.7245 102.691 50.9885 102.691 51.2902C102.691 51.5919 102.617 51.8559 102.506 52.1199C102.395 52.3839 102.173 52.5724 101.914 52.6856L103.098 54.609H102.358ZM101.803 51.969C101.951 51.7804 102.025 51.5919 102.025 51.3279C102.025 51.177 101.988 51.0639 101.914 50.913C101.84 50.7622 101.766 50.649 101.618 50.5736C101.47 50.4982 101.322 50.4228 101.1 50.4228H100.36V52.1953H101.026C101.396 52.233 101.655 52.1576 101.803 51.969Z" fill="white"/>
<path d="M103.986 51.0263C104.208 50.6492 104.504 50.3474 104.874 50.1212C105.244 49.8949 105.651 49.7817 106.059 49.7817C106.503 49.7817 106.873 49.8949 107.243 50.1212C107.613 50.3474 107.909 50.6492 108.131 51.0263C108.353 51.4034 108.464 51.8183 108.464 52.2331C108.464 52.6857 108.353 53.1005 108.131 53.44C107.909 53.8171 107.613 54.1188 107.243 54.3451C106.873 54.5714 106.466 54.6845 106.059 54.6845C105.614 54.6845 105.207 54.5714 104.874 54.3451C104.504 54.1188 104.208 53.8171 103.986 53.4777C103.764 53.1005 103.653 52.6857 103.653 52.2331C103.653 51.7806 103.764 51.4034 103.986 51.0263ZM104.541 53.1382C104.689 53.4022 104.911 53.6285 105.17 53.8171C105.429 53.9679 105.725 54.0434 106.059 54.0434C106.392 54.0434 106.688 53.9679 106.947 53.8171C107.206 53.6662 107.428 53.44 107.576 53.1382C107.724 52.8742 107.798 52.5348 107.798 52.2331C107.798 51.8937 107.724 51.592 107.576 51.328C107.428 51.064 107.206 50.8377 106.947 50.6492C106.688 50.4983 106.392 50.4229 106.059 50.4229C105.725 50.4229 105.429 50.4983 105.17 50.6869C104.911 50.8377 104.689 51.064 104.541 51.3657C104.393 51.6297 104.319 51.9691 104.319 52.2708C104.282 52.5725 104.393 52.8742 104.541 53.1382Z" fill="white"/>
<path d="M111.979 50.2341C112.275 50.4981 112.424 50.8752 112.424 51.3278C112.424 51.5918 112.386 51.8558 112.275 52.082C112.164 52.3083 112.016 52.4969 111.757 52.6477C111.535 52.7986 111.239 52.874 110.869 52.874H110.166V54.6466H109.537V49.8569H110.795C111.276 49.8569 111.683 49.9701 111.979 50.2341ZM111.387 52.082C111.535 51.9689 111.646 51.8558 111.683 51.7426C111.757 51.5918 111.757 51.4786 111.757 51.3278C111.757 51.1015 111.683 50.8752 111.535 50.7243C111.387 50.5358 111.165 50.4604 110.832 50.4604H110.092V52.2329H110.795C111.054 52.2329 111.239 52.1952 111.387 52.082Z" fill="white"/>
<path d="M116.42 49.8569V50.4604H113.978V51.9312H116.124V52.5346H113.978V54.0054H116.494V54.6466H113.349V49.8569H116.42Z" fill="white"/>
<path d="M120.195 54.609L119.085 52.8364C119.048 52.8364 119.011 52.8364 118.937 52.8364H118.233V54.609H117.604V49.8193H118.863C119.196 49.8193 119.455 49.8948 119.714 50.0079C119.973 50.121 120.158 50.3096 120.306 50.4982C120.454 50.7245 120.528 50.9885 120.528 51.2902C120.528 51.5919 120.454 51.8559 120.343 52.1199C120.232 52.3839 120.01 52.5724 119.751 52.6856L120.935 54.609H120.195ZM119.677 51.969C119.825 51.7804 119.899 51.5919 119.899 51.3279C119.899 51.177 119.862 51.0639 119.788 50.913C119.714 50.7622 119.64 50.649 119.492 50.5736C119.344 50.4982 119.196 50.4228 118.974 50.4228H118.233V52.1953H118.9C119.27 52.233 119.529 52.1576 119.677 51.969Z" fill="white"/>
<path d="M124.635 49.8569V50.4604H123.377V54.6466H122.748V50.4604H121.527V49.8569H124.635Z" fill="white"/>
<path d="M129.261 49.8569L127.485 53.0626V54.6466H126.856V53.0626L125.117 49.8569H125.894L127.189 52.3083L128.484 49.8569H129.261Z" fill="white"/>
<path d="M129.113 54.0433C129.187 53.9679 129.261 53.9302 129.335 53.9302C129.409 53.9302 129.483 53.9679 129.557 54.0433C129.631 54.1187 129.668 54.1942 129.668 54.3073C129.668 54.4205 129.631 54.4959 129.557 54.5713C129.483 54.6467 129.409 54.6844 129.335 54.6844C129.261 54.6844 129.15 54.6467 129.113 54.5713C129.039 54.4959 129.002 54.4205 129.002 54.3073C129.002 54.1942 129.039 54.081 129.113 54.0433Z" fill="white"/>
<path d="M135.071 53.3645H133.258L132.74 54.6091H132.111L134.146 49.6309H134.183L136.218 54.6091H135.478L135.071 53.3645ZM134.849 52.7988L134.183 51.064L133.48 52.7988H134.849Z" fill="white"/>
<path d="M137.143 49.8569H138.439C139.031 49.8569 139.512 49.9701 139.882 50.1964C140.252 50.4226 140.548 50.7243 140.733 51.1015C140.918 51.4786 140.992 51.8558 140.992 52.2706C140.992 52.7232 140.881 53.138 140.659 53.5152C140.437 53.8546 140.178 54.1563 139.808 54.3449C139.438 54.5334 139.068 54.6466 138.661 54.6466H137.143V49.8569ZM138.55 54.0054C138.883 54.0054 139.216 53.93 139.475 53.7792C139.734 53.6283 139.956 53.4397 140.104 53.1757C140.252 52.9117 140.326 52.61 140.326 52.2329C140.326 51.8558 140.252 51.5163 140.104 51.2523C139.956 50.9883 139.734 50.7621 139.475 50.6489C139.216 50.4981 138.92 50.4226 138.624 50.4226H137.809V53.9677H138.55V54.0054Z" fill="white"/>
<path d="M145.581 49.8569L143.508 54.8728L141.436 49.8569H142.176L143.545 53.3266L144.841 49.8569H145.581Z" fill="white"/>
<path d="M147.135 49.8569V54.6466H146.506V49.8569H147.135Z" fill="white"/>
<path d="M150.391 50.4607C150.206 50.3853 150.021 50.3853 149.836 50.3853C149.577 50.3853 149.392 50.4607 149.244 50.5738C149.096 50.687 149.022 50.8378 149.022 51.0641C149.022 51.2527 149.096 51.4413 149.281 51.5544C149.466 51.6675 149.725 51.8184 150.021 51.9315C150.28 52.007 150.465 52.1201 150.65 52.2332C150.835 52.3464 150.947 52.4972 151.058 52.6481C151.169 52.799 151.206 53.0629 151.206 53.3647C151.206 53.6286 151.132 53.8549 151.021 54.0435C150.91 54.2321 150.724 54.4206 150.502 54.5338C150.28 54.6469 149.984 54.7223 149.688 54.7223C149.392 54.7223 149.133 54.6846 148.837 54.5715C148.578 54.4583 148.319 54.3452 148.134 54.1944L148.43 53.6664C148.578 53.7795 148.8 53.8926 149.022 53.9681C149.244 54.0435 149.466 54.0812 149.651 54.0812C149.91 54.0812 150.132 54.0058 150.317 53.8926C150.502 53.7418 150.613 53.5532 150.613 53.2892C150.613 53.0629 150.539 52.8744 150.391 52.7612C150.243 52.6481 150.021 52.4972 149.725 52.3841C149.466 52.271 149.244 52.1955 149.059 52.0824C148.874 51.9693 148.726 51.8561 148.615 51.6675C148.504 51.479 148.43 51.2904 148.43 51.0264C148.43 50.6493 148.541 50.3476 148.8 50.1213C149.059 49.895 149.392 49.7819 149.799 49.7441C150.317 49.7441 150.761 49.8573 151.206 50.1213L150.947 50.6116C150.761 50.6116 150.576 50.5361 150.391 50.4607Z" fill="white"/>
<path d="M152.316 51.0263C152.538 50.6492 152.834 50.3474 153.204 50.1212C153.574 49.8949 153.981 49.7817 154.388 49.7817C154.832 49.7817 155.202 49.8949 155.572 50.1212C155.942 50.3474 156.238 50.6492 156.46 51.0263C156.682 51.4034 156.793 51.8183 156.793 52.2331C156.793 52.6857 156.682 53.1005 156.46 53.44C156.238 53.8171 155.942 54.1188 155.572 54.3451C155.202 54.5714 154.795 54.6845 154.388 54.6845C153.944 54.6845 153.537 54.5714 153.204 54.3451C152.834 54.1188 152.538 53.8171 152.316 53.4777C152.094 53.1005 151.983 52.6857 151.983 52.2331C151.983 51.7806 152.094 51.4034 152.316 51.0263ZM152.871 53.1382C153.019 53.4022 153.241 53.6285 153.5 53.8171C153.759 53.9679 154.055 54.0434 154.388 54.0434C154.721 54.0434 155.017 53.9679 155.276 53.8171C155.535 53.6662 155.757 53.44 155.905 53.1382C156.053 52.8742 156.127 52.5348 156.127 52.2331C156.127 51.8937 156.053 51.592 155.905 51.328C155.757 51.064 155.535 50.8377 155.276 50.6492C155.017 50.4983 154.721 50.4229 154.388 50.4229C154.055 50.4229 153.759 50.4983 153.5 50.6869C153.241 50.8377 153.019 51.064 152.871 51.3657C152.723 51.6297 152.649 51.9691 152.649 52.2708C152.649 52.5725 152.723 52.8742 152.871 53.1382Z" fill="white"/>
<path d="M160.457 54.609L159.347 52.8364C159.31 52.8364 159.273 52.8364 159.199 52.8364H158.496V54.609H157.867V49.8193H159.125C159.458 49.8193 159.717 49.8948 159.976 50.0079C160.235 50.121 160.42 50.3096 160.568 50.4982C160.716 50.7245 160.79 50.9885 160.79 51.2902C160.79 51.5919 160.716 51.8559 160.605 52.1199C160.494 52.3839 160.272 52.5724 160.013 52.6856L161.197 54.609H160.457ZM159.902 51.969C160.05 51.7804 160.124 51.5919 160.124 51.3279C160.124 51.177 160.087 51.0639 160.013 50.913C159.939 50.7622 159.865 50.649 159.717 50.5736C159.569 50.4982 159.421 50.4228 159.199 50.4228H158.459V52.1953H159.125C159.495 52.233 159.754 52.1576 159.902 51.969Z" fill="white"/>
<path d="M165.527 49.8569L163.751 53.0626V54.6466H163.121V53.0626L161.382 49.8569H162.159L163.454 52.3083L164.75 49.8569H165.527Z" fill="white"/>
<path d="M165.379 54.0433C165.453 53.9679 165.527 53.9302 165.601 53.9302C165.675 53.9302 165.749 53.9679 165.823 54.0433C165.897 54.1187 165.934 54.1942 165.934 54.3073C165.934 54.4205 165.897 54.4959 165.823 54.5713C165.749 54.6467 165.675 54.6844 165.601 54.6844C165.527 54.6844 165.416 54.6467 165.379 54.5713C165.305 54.4959 165.268 54.4205 165.268 54.3073C165.268 54.1942 165.305 54.081 165.379 54.0433Z" fill="white"/>
</g>
<defs>
<clipPath id="clip0">
<rect width="263" height="64" fill="white"/>
</clipPath>
</defs>
</svg>
