<svg width="130" height="107" viewBox="0 0 130 107" fill="none" xmlns="http://www.w3.org/2000/svg">
<path d="M111.863 0C102.954 0 95.563 6.61182 94.3312 15.185H7.59252C3.40576 15.185 0 18.5908 0 22.7776V98.7028C0 102.89 3.40576 106.295 7.59252 106.295H111.863C121.632 106.295 129.579 98.3479 129.579 88.5794V17.7159C129.579 7.94051 121.671 0 111.863 0ZM7.59252 101.234C6.19661 101.234 5.06168 100.099 5.06168 98.7028V22.7776C5.06168 21.3817 6.19661 20.2467 7.59252 20.2467H94.1473V88.5794C94.1473 93.5324 96.1937 98.0157 99.4818 101.234H7.59252ZM111.863 101.234C104.886 101.234 99.209 95.557 99.209 88.5794C99.209 81.6018 104.886 75.9252 111.863 75.9252C118.841 75.9252 124.517 81.6018 124.517 88.5794C124.517 95.557 118.841 101.234 111.863 101.234ZM124.517 76.1981C121.299 72.91 116.816 70.8635 111.863 70.8635C106.91 70.8635 102.427 72.91 99.209 76.1981V17.7159C99.209 10.7383 104.886 5.06168 111.863 5.06168C118.845 5.06168 124.517 10.7096 124.517 17.7159V76.1981Z" fill="black"/>
<path d="M42.1336 50.617H44.5429C45.9408 50.617 47.0737 49.484 47.0737 48.0861C47.0737 46.6882 45.9408 45.5553 44.5429 45.5553H35.588C36.4531 44.0654 36.9503 42.3364 36.9503 40.4936C36.9503 34.9119 32.4087 30.3702 26.827 30.3702C21.2453 30.3702 16.7036 34.9119 16.7036 40.4936C16.7036 46.0753 21.2453 50.617 26.827 50.617C28.7478 50.617 30.5441 50.0792 32.0755 49.1469L34.4956 58.8234C34.8357 60.1877 36.2178 61.0023 37.5643 60.6642C38.9197 60.3251 39.7442 58.9509 39.4051 57.5956L38.5628 54.2244C47.0945 61.9277 47.0875 71.5419 47.0747 86.027L47.0737 87.7244C47.0737 89.1213 48.2067 90.2553 49.6045 90.2553C51.0024 90.2553 52.1354 89.1213 52.1354 87.7244L52.1364 86.0319C52.1492 71.1385 52.1581 59.7497 42.1336 50.617ZM26.827 45.5553C24.0361 45.5553 21.7653 43.2844 21.7653 40.4936C21.7653 37.7028 24.0361 35.4319 26.827 35.4319C29.6178 35.4319 31.8887 37.7028 31.8887 40.4936C31.8887 43.2844 29.6178 45.5553 26.827 45.5553Z" fill="black"/>
<path d="M81.7641 31.1117C80.7755 30.1231 79.1739 30.1231 78.1853 31.1117L72.3822 36.9138L66.579 31.1117C65.5904 30.1231 63.9889 30.1231 63.0002 31.1117C62.0116 32.0993 62.0116 33.7019 63.0002 34.6905L68.8024 40.4936L63.0002 46.2967C62.0116 47.2854 62.0116 48.8869 63.0002 49.8755C63.9889 50.8641 65.5904 50.8641 66.579 49.8755L72.3822 44.0734L78.1853 49.8755C79.1739 50.8641 80.7755 50.8641 81.7641 49.8755C82.7527 48.8879 82.7527 47.2854 81.7641 46.2967L75.9619 40.4936L81.7641 34.6905C82.7527 33.7019 82.7527 32.1003 81.7641 31.1117Z" fill="black"/>
<path d="M81.7641 71.605C80.7755 70.6164 79.1739 70.6164 78.1853 71.605L72.3822 77.4071L66.579 71.605C65.5904 70.6164 63.9889 70.6164 63.0002 71.605C62.0116 72.5926 62.0116 74.1951 63.0002 75.1838L68.8024 80.9869L63.0002 86.79C62.0116 87.7786 62.0116 89.3802 63.0002 90.3688C63.9889 91.3574 65.5904 91.3574 66.579 90.3688L72.3822 84.5666L78.1853 90.3688C79.1739 91.3574 80.7755 91.3574 81.7641 90.3688C82.7527 89.3812 82.7527 87.7786 81.7641 86.79L75.9619 80.9869L81.7641 75.1838C82.7527 74.1951 82.7527 72.5936 81.7641 71.605Z" fill="black"/>
<path d="M36.2089 71.605C35.2203 70.6164 33.6187 70.6164 32.6301 71.605L26.827 77.4071L21.0238 71.605C20.0352 70.6164 18.4337 70.6164 17.4451 71.605C16.4565 72.5926 16.4565 74.1951 17.4451 75.1838L23.2472 80.9869L17.4451 86.79C16.4565 87.7786 16.4565 89.3802 17.4451 90.3688C18.4337 91.3574 20.0352 91.3574 21.0238 90.3688L26.827 84.5666L32.6301 90.3688C33.6187 91.3574 35.2203 91.3574 36.2089 90.3688C37.1975 89.3812 37.1975 87.7786 36.2089 86.79L30.4067 80.9869L36.2089 75.1838C37.1975 74.1951 37.1975 72.5936 36.2089 71.605Z" fill="black"/>
<path d="M116.925 20.2468C115.527 20.2468 114.394 21.3798 114.394 22.7777V48.0861C114.394 49.484 115.527 50.6169 116.925 50.6169C118.323 50.6169 119.456 49.484 119.456 48.0861V22.7777C119.456 21.3798 118.323 20.2468 116.925 20.2468Z" fill="white"/>
</svg>
