<svg width="130" height="130" viewBox="0 0 130 130" fill="none" xmlns="http://www.w3.org/2000/svg">
<path d="M124.195 102.785C124.109 102.712 124.018 102.644 123.922 102.584L111.456 94.6347C103.771 89.7341 94.3905 81.934 87.7787 75.4131C93.3416 67.3728 96.2718 57.9948 96.2718 48.1512C96.2718 21.6001 74.6559 0 48.085 0C21.5705 0 0 21.5715 0 48.085C0 74.6361 21.616 96.2362 48.1868 96.2362C57.8732 96.2362 67.1286 93.39 75.0938 87.9863C81.6967 94.6594 89.9843 104.146 94.9837 111.981L102.599 123.916C102.66 124.011 102.727 124.102 102.801 124.189C109.001 131.518 120.393 131.383 126.4 123.71C131.209 117.569 130.631 108.222 124.195 102.785ZM73.8571 82.6577C66.3852 88.2295 57.5084 91.1745 48.1868 91.1745C24.4078 91.1745 5.06168 71.8452 5.06168 48.085C5.06168 24.3623 24.3623 5.06168 48.085 5.06168C71.865 5.06168 91.2101 24.391 91.2101 48.1512C91.2101 62.3941 84.2988 74.8694 73.8571 82.6577ZM79.159 84.9008C81.1342 83.233 82.973 81.41 84.6606 79.4457C87.1568 81.8846 89.9971 84.4698 92.9481 86.9897L86.8019 93.1349C84.3264 90.3164 81.7066 87.4939 79.159 84.9008ZM122.415 120.59C118.457 125.645 110.962 125.843 106.77 121.042L99.2505 109.258C96.948 105.65 93.8072 101.441 90.1039 96.9925L96.859 90.2373C101.084 93.648 105.157 96.6208 108.735 98.9025L121.05 106.755C125.057 110.253 125.678 116.423 122.415 120.59Z" fill="#2A3141"/>
<path d="M73.3934 66.054H70.8626V23.0307C70.8626 21.6328 69.7296 20.4999 68.3317 20.4999H53.1467C51.7488 20.4999 50.6158 21.6328 50.6158 23.0307V35.6849H37.9626C36.5647 35.6849 35.4318 36.8179 35.4318 38.2158V50.87H22.7776C21.3797 50.87 20.2467 52.0029 20.2467 53.4008V66.054H17.7159C16.318 66.054 15.1851 67.188 15.1851 68.5849C15.1851 69.9828 16.318 71.1157 17.7159 71.1157H73.3934C74.7913 71.1157 75.9243 69.9828 75.9243 68.5849C75.9243 67.188 74.7913 66.054 73.3934 66.054ZM35.4318 66.054H25.3084V55.9317H35.4318V66.054ZM50.6158 66.054H40.4935C40.4935 59.196 40.4935 44.7861 40.4935 40.7466H50.6158V66.054ZM65.8009 66.054H55.6775C55.6775 61.1515 55.6775 30.4631 55.6775 25.5616H65.8009V66.054Z" fill="#2A3141"/>
</svg>
