<svg width="40" height="40" viewBox="0 0 40 40" fill="none" xmlns="http://www.w3.org/2000/svg">
<path d="M31.6019 39.25C29.9244 39.25 27.568 38.6433 24.0394 36.6719C19.7486 34.2656 16.4296 32.0441 12.162 27.7877C8.0473 23.6755 6.04496 21.0132 3.24254 15.9137C0.0766 10.1559 0.616287 7.13773 1.21957 5.84781C1.93801 4.30609 2.99848 3.38398 4.36918 2.46875C5.14773 1.95865 5.97163 1.52139 6.83043 1.1625C6.91637 1.12554 6.99629 1.09031 7.06762 1.05851C7.49301 0.866871 8.13754 0.577262 8.95394 0.886637C9.49879 1.09117 9.9852 1.50968 10.7466 2.26164C12.3081 3.80164 14.4419 7.2314 15.2291 8.91578C15.7576 10.051 16.1074 10.8004 16.1082 11.6409C16.1082 12.6248 15.6132 13.3837 15.0125 14.2027C14.9 14.3565 14.7882 14.5034 14.68 14.6461C14.026 15.5055 13.8825 15.7538 13.977 16.1973C14.1686 17.0884 15.5978 19.7413 17.9464 22.0848C20.2951 24.4284 22.8715 25.7673 23.7661 25.958C24.2285 26.0569 24.482 25.9073 25.3689 25.2302C25.4961 25.133 25.6267 25.0325 25.7633 24.9319C26.6794 24.2505 27.403 23.7684 28.3638 23.7684H28.3689C29.2051 23.7684 29.921 24.131 31.1069 24.7291C32.6538 25.5094 36.1867 27.6158 37.7361 29.179C38.4898 29.9387 38.91 30.4234 39.1154 30.9673C39.4248 31.7863 39.1335 32.4283 38.9436 32.858C38.9118 32.9293 38.8765 33.0075 38.8396 33.0943C38.4778 33.9516 38.038 34.7737 37.5256 35.5504C36.6121 36.9168 35.6865 37.9747 34.1414 38.694C33.3479 39.0693 32.4796 39.2594 31.6019 39.25Z" fill="#2A3141"/>
</svg>
