<svg width="497" height="130" viewBox="0 0 497 130" fill="none" xmlns="http://www.w3.org/2000/svg">
<path d="M124.195 102.785C124.109 102.712 124.018 102.644 123.922 102.584L111.456 94.6347C103.771 89.7341 94.3905 81.934 87.7787 75.4131C93.3416 67.3728 96.2718 57.9948 96.2718 48.1512C96.2718 21.6001 74.6559 0 48.085 0C21.5705 0 0 21.5715 0 48.085C0 74.6361 21.616 96.2362 48.1868 96.2362C57.8732 96.2362 67.1286 93.39 75.0938 87.9863C81.6967 94.6594 89.9843 104.146 94.9837 111.981L102.599 123.916C102.66 124.011 102.727 124.102 102.801 124.189C109.001 131.518 120.393 131.383 126.4 123.71C131.209 117.569 130.631 108.222 124.195 102.785ZM73.8571 82.6577C66.3852 88.2295 57.5084 91.1745 48.1868 91.1745C24.4078 91.1745 5.06168 71.8452 5.06168 48.085C5.06168 24.3623 24.3623 5.06168 48.085 5.06168C71.865 5.06168 91.2101 24.391 91.2101 48.1512C91.2101 62.3941 84.2988 74.8694 73.8571 82.6577ZM79.159 84.9008C81.1342 83.233 82.973 81.41 84.6606 79.4457C87.1568 81.8846 89.9971 84.4698 92.9481 86.9897L86.8019 93.1349C84.3264 90.3164 81.7066 87.4939 79.159 84.9008ZM122.415 120.59C118.457 125.645 110.962 125.843 106.77 121.042L99.2505 109.258C96.948 105.65 93.8072 101.441 90.1039 96.9925L96.859 90.2373C101.084 93.648 105.157 96.6208 108.735 98.9025L121.05 106.755C125.057 110.253 125.678 116.423 122.415 120.59Z" fill="#2A3141"/>
<path d="M73.3934 66.054H70.8626V23.0307C70.8626 21.6328 69.7296 20.4999 68.3317 20.4999H53.1467C51.7488 20.4999 50.6158 21.6328 50.6158 23.0307V35.6849H37.9626C36.5647 35.6849 35.4318 36.8179 35.4318 38.2158V50.87H22.7776C21.3797 50.87 20.2467 52.0029 20.2467 53.4008V66.054H17.7159C16.318 66.054 15.1851 67.188 15.1851 68.5849C15.1851 69.9828 16.318 71.1157 17.7159 71.1157H73.3934C74.7913 71.1157 75.9243 69.9828 75.9243 68.5849C75.9243 67.188 74.7913 66.054 73.3934 66.054ZM35.4318 66.054H25.3084V55.9317H35.4318V66.054ZM50.6158 66.054H40.4935C40.4935 59.196 40.4935 44.7861 40.4935 40.7466H50.6158V66.054ZM65.8009 66.054H55.6775C55.6775 61.1515 55.6775 30.4631 55.6775 25.5616H65.8009V66.054Z" fill="#2A3141"/>
<path d="M495.151 45.9189C497.004 42.6714 496.285 38.5607 493.442 36.1426L484.87 28.8644C484.396 28.4611 484.074 27.8936 483.963 27.2678L482.022 16.2705C481.374 12.5633 478.194 9.87424 474.462 9.87424H463.274C462.667 9.87424 462.074 9.65476 461.624 9.27316L453.053 1.8398C453.046 1.83387 453.038 1.82794 453.031 1.82102C450.166 -0.607006 446.007 -0.607006 443.143 1.82102C443.135 1.82794 443.128 1.83387 443.121 1.8398L434.569 9.25635C434.1 9.65476 433.508 9.87424 432.902 9.87424H421.711C417.98 9.87424 414.801 12.5642 414.152 16.2666L412.208 27.2738C412.099 27.8966 411.779 28.4611 411.304 28.8635L402.731 36.1436C399.888 38.5607 399.171 42.6714 401.023 45.918L406.619 55.7279C406.932 56.2776 407.045 56.9232 406.936 57.547L404.993 68.7005C404.349 72.4008 406.421 76.0211 409.918 77.3073L420.433 81.1827C420.642 81.2598 420.84 81.3636 421.021 81.4911L401.53 115.671C400.418 117.62 402.215 119.95 404.383 119.37L415.767 116.32L418.816 127.703C419.399 129.877 422.335 130.273 423.459 128.302L443.574 93.0312L447.201 91.6945C447.772 91.484 448.402 91.485 448.971 91.6936L452.872 93.131L474.455 128.37C475.614 130.26 478.483 129.853 479.058 127.703L482.109 116.32L493.492 119.37C495.691 119.961 497.499 117.552 496.306 115.603L475.336 81.3735C475.466 81.2973 475.601 81.2331 475.743 81.1817L486.253 77.3073C489.757 76.0201 491.829 72.3989 491.182 68.6995L489.238 57.546C489.129 56.9232 489.242 56.2766 489.555 55.7269L495.151 45.9189ZM422.112 120.447L420.001 112.565C419.639 111.215 418.251 110.414 416.9 110.776L408.93 112.911L424.081 86.3412L427.399 92.1562C429.179 95.2812 432.822 96.7286 436.211 95.7251L422.112 120.447ZM488.677 112.84L480.974 110.776C479.623 110.414 478.236 111.216 477.874 112.565L475.694 120.702L460.478 95.8606C461.028 95.9822 461.581 96.0425 462.129 96.0425C464.811 96.0415 467.372 94.6199 468.775 92.1572L472.262 86.0446L488.677 112.84ZM485.159 53.2198C484.263 54.7897 483.941 56.6355 484.252 58.416L486.195 69.5704C486.422 70.8586 485.711 72.1151 484.506 72.558L473.995 76.4314C472.42 77.0107 471.079 78.1041 470.176 79.5228C470.072 79.6572 469.984 79.8016 469.911 79.9528L464.378 89.6511C463.744 90.7643 462.422 91.2546 461.237 90.8196C460.905 90.697 450.988 87.0431 450.719 86.9443C449.022 86.3215 447.153 86.3205 445.454 86.9453C445.25 87.0184 440.765 88.6724 434.94 90.8196C433.752 91.2566 432.431 90.7643 431.796 89.6501L426.59 80.5252C426.47 80.0487 426.214 79.6068 425.837 79.2638C424.938 77.9697 423.661 76.9761 422.182 76.4324L411.668 72.557C410.466 72.1151 409.755 70.8576 409.979 69.5685L411.923 58.416C412.234 56.6355 411.912 54.7897 411.016 53.2198L405.421 43.4099C404.772 42.2759 405.021 40.8414 406.009 40.0011L414.581 32.722C415.955 31.5544 416.884 29.9282 417.194 28.1487L419.138 17.1435C419.362 15.8642 420.445 14.9349 421.712 14.9349H432.903C434.708 14.9349 436.464 14.2884 437.866 13.0961L446.425 5.67462C447.39 4.86396 448.785 4.86396 449.75 5.67462L458.328 13.1129C459.71 14.2884 461.467 14.9349 463.274 14.9349H474.463C475.731 14.9349 476.813 15.8642 477.038 17.1465L478.979 28.1477C479.294 29.9321 480.222 31.5564 481.594 32.722L490.164 39.9992C491.154 40.8405 491.402 42.2749 490.755 43.4099L485.159 53.2198Z" fill="#2A3141"/>
<path d="M448.087 15.1208C443.731 15.1208 439.495 15.9602 435.499 17.6161C434.208 18.1509 433.595 19.6319 434.13 20.923C434.666 22.2141 436.147 22.8261 437.437 22.2922C440.815 20.8914 444.399 20.1815 448.087 20.1815C463.438 20.1815 475.926 32.6697 475.926 48.0198C475.926 63.3699 463.438 75.8581 448.087 75.8581C432.737 75.8581 420.249 63.3699 420.249 48.0198C420.249 43.2587 421.472 38.5588 423.785 34.4294C424.469 33.2104 424.034 31.6672 422.815 30.9841C421.595 30.301 420.052 30.7359 419.369 31.9549C416.634 36.8386 415.188 42.3936 415.188 48.0208C415.188 66.1618 429.946 80.9207 448.087 80.9207C466.228 80.9207 480.987 66.1618 480.987 48.0208C480.987 29.8788 466.228 15.1208 448.087 15.1208Z" fill="#2A3141"/>
<path d="M438.148 51.285L436.667 59.9116C436.504 60.8607 436.894 61.8206 437.674 62.3871C438.445 62.9477 439.477 63.0327 440.339 62.5799L448.087 58.5068L455.836 62.5799C456.688 63.0277 457.721 62.9536 458.502 62.3871C459.281 61.8206 459.671 60.8617 459.508 59.9116L458.027 51.285L464.295 45.1754C464.985 44.5032 465.233 43.4978 464.935 42.5813C464.637 41.6649 463.845 40.9976 462.892 40.8582L454.23 39.5997L450.357 31.7511C449.93 30.887 449.05 30.3394 448.087 30.3394C447.124 30.3394 446.244 30.887 445.818 31.7511L441.945 39.5997L433.283 40.8582C432.329 40.9976 431.537 41.6649 431.24 42.5813C430.942 43.4978 431.19 44.5032 431.88 45.1754L438.148 51.285ZM443.99 44.4172C444.814 44.2975 445.527 43.7795 445.896 43.0331L448.087 38.5903L450.28 43.0331C450.648 43.7795 451.361 44.2975 452.185 44.4172L457.09 45.1299L453.541 48.5891C452.945 49.1704 452.673 50.0077 452.813 50.8293L453.651 55.713L449.265 53.4076C448.896 53.2138 448.492 53.1169 448.087 53.1169C447.683 53.1169 447.279 53.2138 446.91 53.4076L442.524 55.713L443.362 50.8293C443.503 50.0087 443.23 49.1704 442.634 48.5891L439.085 45.1299L443.99 44.4172Z" fill="#2A3141"/>
</svg>
