<svg width="130" height="112" viewBox="0 0 130 112" fill="none" xmlns="http://www.w3.org/2000/svg">
<path d="M121.987 30.3701H87.5671V7.59252C87.5671 3.40576 84.1613 0 79.9746 0H7.59252C3.40576 0 0 3.40576 0 7.59252V58.2093C0 62.3961 3.40576 65.8019 7.59252 65.8019H15.185V78.4561C15.185 80.723 17.9245 81.8262 19.5053 80.2455L33.9489 65.8019H42.012V88.5794C42.012 92.7662 45.4177 96.172 49.6045 96.172H95.6302L110.074 110.616C111.657 112.198 114.394 111.088 114.394 108.826V96.172H121.987C126.173 96.172 129.579 92.7662 129.579 88.5794V37.9626C129.579 33.7759 126.173 30.3701 121.987 30.3701ZM17.7159 35.4288H42.4469C42.1662 36.2217 42.012 37.0729 42.012 37.9596V45.5551H17.7159C16.318 45.5551 15.185 46.6881 15.185 48.086C15.185 49.4839 16.318 50.6168 17.7159 50.6168H42.012V60.7402H32.9009C32.2297 60.7402 31.5861 61.0071 31.1115 61.4816L20.2467 72.3455V63.271C20.2467 61.8731 19.1138 60.7402 17.7159 60.7402H7.59252C6.19661 60.7402 5.06168 59.6053 5.06168 58.2093V7.59252C5.06168 6.19661 6.19661 5.06168 7.59252 5.06168H79.9746C81.3705 5.06168 82.5054 6.19661 82.5054 7.59252V30.3701C78.9444 30.3701 21.2818 30.3701 17.7159 30.3701C16.318 30.3701 15.185 31.503 15.185 32.9009C15.185 34.2988 16.318 35.4288 17.7159 35.4288ZM124.517 88.5794C124.517 89.9753 123.382 91.1103 121.987 91.1103H111.863C110.465 91.1103 109.332 92.2432 109.332 93.6411V102.716L98.4675 91.8517C97.993 91.3772 97.3494 91.1103 96.6781 91.1103H49.6045C48.2086 91.1103 47.0736 89.9744 47.0736 88.5794V37.9626C47.0736 36.5667 48.2086 35.4318 49.6045 35.4318H121.987C123.382 35.4318 124.517 36.5667 124.517 37.9626V88.5794Z" fill="#2A3141"/>
</svg>
